<svg width="28" height="17" viewBox="0 0 28 17" fill="none" xmlns="http://www.w3.org/2000/svg">
<path d="M23.4671 3.93541C20.4128 1.54752 17.0842 0.265305 13.8336 0.265305C10.583 0.265305 7.25442 1.54752 4.20018 3.93541C1.92886 5.70427 0.597408 7.51691 0.519243 7.56132L0.0491943 8.22449L0.518991 8.84352C0.55808 8.93208 1.88953 10.7006 4.19993 12.4694C7.25448 14.9015 10.5834 16.1837 13.8334 16.1837C17.0834 16.1837 20.4126 14.9015 23.4668 12.5136C25.7382 10.7447 27.0696 8.93207 27.1478 8.88766L27.6176 8.26862L27.1478 7.60545C27.0696 7.5169 25.7382 5.74833 23.4668 3.93534L23.4671 3.93541ZM13.8336 13.1325C11.3276 13.1325 9.25191 10.8333 9.25191 7.959C9.25191 5.08473 11.3275 2.82987 13.8336 2.82987C16.3398 2.82987 18.4154 5.12915 18.4154 8.00341C18.4154 10.8773 16.3398 13.1325 13.8336 13.1325Z" fill="#918F8F"/>
<path d="M15.7135 7.95978C15.7135 9.13205 14.872 10.0823 13.8338 10.0823C12.7956 10.0823 11.9541 9.13205 11.9541 7.95978C11.9541 6.78779 12.7956 5.8373 13.8338 5.8373C14.872 5.8373 15.7135 6.78779 15.7135 7.95978Z" fill="#918F8F"/>
</svg>
