<svg width="260" height="68" viewBox="0 0 260 68" fill="none" xmlns="http://www.w3.org/2000/svg">
<rect width="259.415" height="67.0696" transform="translate(0.551758 0.110657)" fill="#16123F"/>
<path d="M30.462 13.2287V4.84497H4.52045V62.4459H30.462V54.0622C25.1478 54.0622 20.0513 51.9111 16.2937 48.0822C12.5361 44.2533 10.425 39.0604 10.425 33.6455C10.425 28.2306 12.5361 23.0374 16.2937 19.2086C20.0513 15.3797 25.1478 13.2287 30.462 13.2287Z" fill="white"/>
<path d="M30.4619 13.2287V54.0622C35.7761 54.0622 40.8726 51.9111 44.6302 48.0822C48.3879 44.2533 50.4988 39.0603 50.4988 33.6455C50.4988 28.2306 48.3879 23.0374 44.6302 19.2086C40.8726 15.3797 35.7761 13.2287 30.4619 13.2287Z" fill="white"/>
<path d="M65.0571 18.3575H70.8649V46.8621H65.0571V18.3575Z" fill="white"/>
<path d="M74.1172 37.0976C74.1172 35.0468 74.7149 33.0422 75.8342 31.3379C76.9536 29.6335 78.5443 28.3061 80.405 27.524C82.2656 26.742 84.3121 26.5404 86.2852 26.9448C88.2583 27.3492 90.0692 28.3414 91.4882 29.7957C92.9072 31.2501 93.8708 33.1008 94.2564 35.1137C94.6418 37.1266 94.4324 39.2107 93.6541 41.102C92.8759 42.9932 91.5643 44.6066 89.8852 45.7373C88.2062 46.8682 86.2354 47.4655 84.2228 47.4539C82.888 47.4646 81.5644 47.2036 80.3299 46.686C79.0953 46.1685 77.9744 45.4051 77.0331 44.4407C76.0919 43.4761 75.3493 42.3296 74.8484 41.0687C74.3478 39.8078 74.0992 38.4577 74.1172 37.0976ZM88.6755 37.0976C88.6526 36.2134 88.3744 35.3557 87.8757 34.632C87.377 33.908 86.6801 33.35 85.8717 33.0276C85.0634 32.7053 84.1799 32.6329 83.3315 32.8197C82.483 33.0063 81.7075 33.4437 81.1017 34.0773C80.496 34.7107 80.0869 35.512 79.9258 36.3811C79.7648 37.2503 79.8587 38.1484 80.1959 38.9633C80.5331 39.7782 81.0986 40.4739 81.8219 40.9629C82.545 41.4522 83.3935 41.7131 84.2616 41.7135C84.8526 41.7254 85.4396 41.6127 85.9859 41.3827C86.5322 41.1529 87.0261 40.8107 87.4367 40.3775C87.8473 39.9443 88.1657 39.4292 88.3723 38.8651C88.5789 38.3007 88.6689 37.699 88.6368 37.0976H88.6755Z" fill="white"/>
<path d="M117.308 27.333V45.8955C117.308 52.4447 112.275 55.2261 107.183 55.2261C105.387 55.3762 103.586 55.0127 101.982 54.1763C100.378 53.3399 99.0345 52.0638 98.1035 50.4918L103.001 47.6117C103.398 48.4272 104.03 49.0999 104.811 49.5404C105.593 49.9809 106.488 50.1683 107.377 50.0775C107.943 50.1485 108.517 50.0913 109.059 49.9099C109.601 49.7282 110.097 49.427 110.512 49.0273C110.926 48.6276 111.249 48.1398 111.456 47.5983C111.664 47.057 111.752 46.4755 111.713 45.8955V44.1004C111.037 44.9355 110.18 45.5983 109.209 46.0366C108.237 46.4749 107.179 46.6765 106.118 46.6254C103.551 46.6254 101.089 45.5862 99.2738 43.7365C97.4585 41.887 96.4386 39.3782 96.4386 36.7622C96.4386 34.1463 97.4585 31.6377 99.2738 29.788C101.089 27.9382 103.551 26.8991 106.118 26.8991C107.179 26.848 108.237 27.0496 109.209 27.4879C110.18 27.9262 111.037 28.589 111.713 29.424V27.4514L117.308 27.333ZM111.713 36.7031C111.752 35.7594 111.512 34.8253 111.026 34.0213C110.539 33.2172 109.828 32.5799 108.983 32.191C108.138 31.8022 107.199 31.6799 106.285 31.8397C105.371 31.9995 104.525 32.4341 103.856 33.0876C103.187 33.7411 102.725 34.5839 102.529 35.5072C102.334 36.4306 102.414 37.3923 102.759 38.2689C103.104 39.1456 103.699 39.897 104.467 40.4264C105.234 40.9559 106.14 41.2393 107.067 41.2401C107.672 41.2845 108.279 41.1991 108.849 40.9896C109.42 40.7799 109.941 40.4507 110.379 40.023C110.817 39.5955 111.162 39.0791 111.392 38.5072C111.621 37.9354 111.731 37.3207 111.713 36.7031Z" fill="white"/>
<path d="M120.58 37.0976C120.58 35.0484 121.176 33.0454 122.294 31.3418C123.412 29.6383 125 28.3109 126.858 27.5277C128.717 26.7444 130.761 26.5404 132.733 26.9417C134.706 27.3429 136.516 28.3312 137.937 29.7815C139.358 31.232 140.324 33.0791 140.714 35.0892C141.104 37.0996 140.9 39.1825 140.128 41.0744C139.356 42.9666 138.05 44.5826 136.376 45.7182C134.702 46.8538 132.735 47.4579 130.724 47.4539C129.387 47.4671 128.06 47.2081 126.822 46.6921C125.584 46.176 124.46 45.4134 123.515 44.4488C122.57 43.4842 121.824 42.3371 121.32 41.0748C120.816 39.8125 120.564 38.4603 120.58 37.0976ZM135.138 37.0976C135.115 36.2127 134.836 35.3542 134.337 34.6298C133.837 33.9057 133.139 33.3476 132.33 33.0259C131.52 32.7041 130.636 32.6329 129.787 32.8213C128.938 33.0095 128.162 33.449 127.557 34.0844C126.952 34.7198 126.545 35.523 126.386 36.3934C126.227 37.2637 126.324 38.1624 126.664 38.9769C127.004 39.7916 127.573 40.4858 128.299 40.9726C129.024 41.4593 129.875 41.7171 130.743 41.7136C131.334 41.7254 131.921 41.6128 132.468 41.3827C133.014 41.1529 133.508 40.8107 133.919 40.3775C134.329 39.9443 134.648 39.4292 134.854 38.8651C135.061 38.3007 135.151 37.699 135.119 37.0976H135.138Z" fill="white"/>
<path d="M143.559 22.1055C143.559 21.4112 143.761 20.7322 144.14 20.1548C144.519 19.5773 145.057 19.1273 145.687 18.8615C146.316 18.5958 147.009 18.5262 147.678 18.6617C148.346 18.7972 148.96 19.1316 149.442 19.6227C149.924 20.1138 150.252 20.7395 150.385 21.4204C150.518 22.1016 150.45 22.8076 150.189 23.4493C149.928 24.0908 149.486 24.6392 148.92 25.025C148.353 25.4109 147.687 25.6168 147.005 25.6168C146.094 25.6066 145.224 25.2333 144.58 24.577C143.936 23.9208 143.569 23.0337 143.559 22.1055ZM144.121 27.333H149.929V46.8621H144.121V27.333Z" fill="white"/>
<path d="M174.786 37.0976C174.851 38.3964 174.663 39.6955 174.234 40.9202C173.804 42.1448 173.141 43.2707 172.283 44.2332C171.425 45.1958 170.388 45.9758 169.233 46.5286C168.078 47.0813 166.827 47.3957 165.552 47.4539C164.47 47.5273 163.385 47.3508 162.38 46.9375C161.374 46.524 160.473 45.8847 159.744 45.067V54.7132H153.936V27.333H159.744V29.1676C160.474 28.3523 161.376 27.7159 162.381 27.306C163.387 26.8959 164.471 26.7231 165.552 26.8004C166.822 26.8586 168.068 27.1713 169.219 27.7203C170.37 28.2692 171.404 29.0441 172.262 30.0002C173.119 30.9564 173.784 32.0752 174.217 33.2932C174.65 34.5109 174.843 35.8035 174.786 37.0976ZM168.978 37.0976C168.955 36.1813 168.667 35.2924 168.151 34.5422C167.634 33.792 166.912 33.2137 166.074 32.8801C165.237 32.5463 164.321 32.4721 163.442 32.6664C162.563 32.8608 161.76 33.3152 161.133 33.9727C160.506 34.6302 160.084 35.4615 159.919 36.3626C159.755 37.2635 159.854 38.194 160.206 39.0375C160.558 39.8808 161.146 40.5996 161.898 41.1038C162.649 41.608 163.529 41.8749 164.429 41.8714C165.045 41.898 165.659 41.7917 166.232 41.5593C166.805 41.3269 167.323 40.9738 167.753 40.5231C168.183 40.0723 168.514 39.534 168.725 38.9438C168.936 38.3534 169.022 37.7243 168.978 37.0976Z" fill="white"/>
<path d="M192.461 41.0034C192.461 45.501 188.589 47.4145 184.485 47.4145C182.811 47.5679 181.13 47.2064 179.66 46.3765C178.19 45.5466 176.998 44.2865 176.238 42.759L181.233 39.879C181.43 40.5828 181.859 41.1961 182.448 41.6163C183.037 42.0365 183.749 42.2379 184.466 42.187C185.84 42.187 186.537 41.753 186.537 40.9639C186.537 38.8138 177.109 39.9579 177.109 33.1918C177.109 28.9309 180.632 26.8004 184.621 26.8004C186.136 26.7312 187.643 27.0817 188.978 27.8146C190.315 28.5474 191.431 29.6353 192.209 30.9627L187.215 33.6455C186.994 33.1365 186.633 32.7037 186.177 32.3992C185.72 32.0946 185.186 31.9314 184.64 31.9293C183.633 31.9293 183.033 32.3238 183.033 33.0142C183.033 35.263 192.461 33.7836 192.461 41.0034Z" fill="white"/>
<path d="M213.505 27.333V46.8621H207.697V45.0276C207.037 45.8397 206.198 46.4822 205.252 46.9038C204.303 47.3253 203.271 47.5137 202.238 47.4539C198.366 47.4539 195.055 44.6331 195.055 39.3661V27.333H200.863V38.4784C200.817 38.9444 200.871 39.4148 201.022 39.8575C201.173 40.3 201.415 40.704 201.732 41.0417C202.052 41.3792 202.439 41.6423 202.867 41.813C203.295 41.9834 203.753 42.0572 204.212 42.0292C206.303 42.0292 207.774 40.7667 207.774 38.0839V27.333H213.505Z" fill="white"/>
<path d="M246.416 34.8685V46.8621H240.608V35.3814C240.608 33.4087 239.698 32.1857 237.859 32.1857C236.02 32.1857 234.858 33.5468 234.858 35.8548V46.8621H229.05V35.3814C229.05 33.4087 228.14 32.1857 226.301 32.1857C224.462 32.1857 223.3 33.5468 223.3 35.8548V46.8621H217.493V27.333H223.3V29.1281C223.903 28.3351 224.687 27.707 225.587 27.3007C226.485 26.8943 227.47 26.7223 228.45 26.8004C229.432 26.7481 230.411 26.9572 231.29 27.4068C232.169 27.8564 232.918 28.5312 233.464 29.3648C234.103 28.4937 234.947 27.8017 235.919 27.3533C236.889 26.9048 237.957 26.7146 239.02 26.8004C243.55 26.8004 246.416 29.9961 246.416 34.8685Z" fill="white"/>
<path d="M251.294 27.2147C253.646 27.2147 255.553 25.2716 255.553 22.8749C255.553 20.4781 253.646 18.5351 251.294 18.5351C248.942 18.5351 247.035 20.4781 247.035 22.8749C247.035 25.2716 248.942 27.2147 251.294 27.2147Z" fill="white"/>
</svg>
