<svg width="1152" height="982" viewBox="0 0 1152 982" fill="none" xmlns="http://www.w3.org/2000/svg">
<path d="M575.997 368.292C599.223 368.292 618.187 387.211 618.187 410.437C618.187 431.633 635.415 448.807 656.611 448.807C677.752 448.807 694.98 431.625 694.98 410.437C694.98 358.371 661.065 314.433 614.364 298.376V276.604C614.364 255.463 597.183 238.181 575.995 238.181C554.753 238.181 537.571 255.454 537.571 276.604V298.376C490.882 314.443 457.056 358.38 457.056 410.437C457.056 476.102 510.375 529.42 575.995 529.42C599.221 529.42 618.185 548.385 618.185 571.61C618.185 594.882 599.22 613.8 575.995 613.8C552.77 613.8 533.849 594.881 533.849 571.61C533.849 550.414 516.622 533.187 495.426 533.187C474.184 533.187 457.056 550.414 457.056 571.61C457.056 623.676 490.88 667.559 537.571 683.626V705.399C537.571 726.64 554.753 743.869 575.995 743.869C597.191 743.869 614.364 726.641 614.364 705.399V683.626C661.054 667.56 694.98 623.679 694.98 571.61C694.98 506.002 641.605 452.627 575.997 452.627C552.771 452.627 533.852 433.708 533.852 410.437C533.852 387.211 552.771 368.292 575.997 368.292V368.292ZM897.729 704.257C916.548 714.178 939.727 706.963 949.604 688.291C981.536 627.95 998.378 559.725 998.378 491.017C998.378 258.18 808.848 68.6967 576.011 68.6967C343.13 68.6967 153.644 258.18 153.644 491.017C153.644 723.899 343.128 913.384 576.011 913.384C643.705 913.384 710.959 897.026 770.525 866.019C789.344 856.29 796.65 833.017 786.884 814.245C777.109 795.518 753.929 788.065 735.064 797.886C685.76 823.627 632.193 836.649 576.021 836.649C385.477 836.649 230.389 681.619 230.389 491.016C230.389 300.517 385.473 145.43 576.021 145.43C766.565 145.43 921.654 300.515 921.654 491.016C921.654 547.289 907.819 603.077 881.786 652.337C871.819 671.11 878.979 694.335 897.752 704.258L897.729 704.257ZM575.997 -84.9752C464.758 -84.9752 356.759 -53.1344 263.699 7.0055C245.84 18.518 240.765 42.2828 252.278 60.0876C263.845 77.8912 287.501 82.9295 305.404 71.5086C385.919 19.4424 479.599 -8.13562 575.988 -8.13562C851.254 -8.13562 1075.14 215.804 1075.14 491.013C1075.14 766.278 851.251 990.208 575.988 990.208C300.725 990.208 76.7927 766.269 76.7927 491.013C76.7927 395.549 103.842 302.69 155.084 222.606C166.505 204.702 161.274 180.945 143.37 169.524C125.512 158.103 101.756 163.334 90.3889 181.183C31.2626 273.648 0 380.873 0 491C0 808.659 258.341 1067 576 1067C893.612 1067 1152 808.659 1152 491C1152 173.435 893.612 -85 576 -85L575.997 -84.9752Z" fill="#75C9B7" fill-opacity="0.6"/>
</svg>
